<?xml version="1.0" encoding="UTF-8"?>
<svg width="24px" height="24px" viewBox="0 0 24 24" version="1.1" xmlns="http://www.w3.org/2000/svg" xmlns:xlink="http://www.w3.org/1999/xlink">
    <title>C4FF41C1-D8AE-421D-A688-99E2C6883BE8</title>
    <defs>
        <path d="M4,14 L11,14 L11,16 L4,16 L4,14 Z M4,10 L14,10 L14,12 L4,12 L4,10 Z M4,6 L14,6 L14,8 L4,8 L4,6 Z M16,2 L11.82,2 C11.4,0.84 10.3,0 9,0 C7.7,0 6.6,0.84 6.18,2 L2,2 C1.86,2 1.73,2.01 1.6,2.04 C1.21,2.12 0.86,2.32 0.59,2.59 C0.41,2.77 0.26,2.99 0.16,3.23 C0.06,3.46 0,3.72 0,4 L0,18 C0,18.27 0.06,18.54 0.16,18.78 C0.26,19.02 0.41,19.23 0.59,19.42 C0.86,19.69 1.21,19.89 1.6,19.97 C1.73,19.99 1.86,20 2,20 L16,20 C17.1,20 18,19.1 18,18 L18,4 C18,2.9 17.1,2 16,2 Z M9,1.75 C9.41,1.75 9.75,2.09 9.75,2.5 C9.75,2.91 9.41,3.25 9,3.25 C8.59,3.25 8.25,2.91 8.25,2.5 C8.25,2.09 8.59,1.75 9,1.75 Z M16,18 L2,18 L2,4 L16,4 L16,18 Z" id="path-1"></path>
    </defs>
    <g id="UI-Style-Guide" stroke="none" stroke-width="1" fill="none" fill-rule="evenodd">
        <g id="Style-Guideline" transform="translate(-135.000000, -5144.000000)">
            <g id="static/icon/24x24/assignment" transform="translate(135.000000, 5144.000000)">
                <g id="swatch" transform="translate(3.000000, 2.000000)">
                    <mask id="mask-2" fill="white">
                        <use xlink:href="#path-1"></use>
                    </mask>
                    <use id="Mask" fill="#000000" fill-rule="nonzero" xlink:href="#path-1"></use>
                    <rect fill="#0064AF" mask="url(#mask-2)" x="-3" y="-2" width="24" height="24"></rect>
                </g>
            </g>
        </g>
    </g>
</svg>