<?xml version="1.0" encoding="UTF-8"?>
<svg width="24px" height="24px" viewBox="0 0 24 24" version="1.1" xmlns="http://www.w3.org/2000/svg" xmlns:xlink="http://www.w3.org/1999/xlink">
    <g id="UI-Style-Guide" stroke="none" stroke-width="1" fill="none" fill-rule="evenodd">
        <g id="Style-Guideline" transform="translate(-643.000000, -5108.000000)">
            <g id="static/icon/24x24/bridge" transform="translate(643.000000, 5108.000000)">
                <polygon id="hit-area" points="0 0 24 0 24 24 0 24"></polygon>
                <path d="M24,11.3606557 L24,10.7768377 C22.4320274,9.72025383 21.2346225,8.04653622 20.6817885,6.01903755 L20.6588543,6.03172924 L20.6588543,6 L19.1017452,6 L19.1017452,6.01586462 L19.0860534,6.00793231 C18.113162,9.57112639 15.2620832,11.4479112 11.9861188,11.4479112 C8.71136146,11.4479112 5.86028265,9.57271285 4.88739124,6.01586462 L4.85721471,6.03172924 L4.85721471,6 L3.30734799,6 L3.30734799,6.08090957 C2.74244329,8.07985193 1.55469497,9.73611846 0,10.7784241 L0,11.3606557 C0.280038224,11.1893178 0.541970528,10.9799048 0.800281648,10.7673189 L0.800281648,13.5198308 L0.0108635518,13.5198308 L0.0108635518,14.6414595 L3.30734799,14.6414595 L3.30734799,18.3870968 L4.85721471,18.3870968 L4.85721471,14.6414595 L19.1017452,14.6414595 L19.1017452,18.3870968 L20.6588543,18.3870968 L20.6588543,14.6414595 L24,14.6414595 L24,13.5230037 L23.211789,13.5230037 L23.211789,10.7720783 C23.4664789,10.9783184 23.723583,11.1861449 24,11.3606557 Z M2.22702811,13.5230037 L1.01513856,13.5230037 L1.01513856,10.6118456 C1.46416537,10.218403 1.86128854,9.75198308 2.22702811,9.25542041 L2.22702811,13.5230037 Z M3.30734799,13.5230037 L2.44067797,13.5230037 L2.44067797,8.94923321 C2.7702057,8.4669487 3.06955691,7.95610788 3.30734799,7.40084611 L3.30734799,13.5230037 Z M5.80596489,13.5230037 L4.85721471,13.5230037 L4.85721471,7.29296668 C5.1131117,7.92437864 5.44263944,8.47170809 5.80596489,8.97303014 L5.80596489,13.5230037 Z M7.52964844,13.5230037 L6.02202887,13.5230037 L6.02202887,9.27921735 C6.46502037,9.82971973 6.97440024,10.2818614 7.52964844,10.6594395 L7.52964844,13.5230037 L7.52964844,13.5230037 Z M9.25453905,13.5230037 L7.74691948,13.5230037 L7.74691948,10.8133263 C8.21646633,11.1099947 8.72705326,11.3289265 9.25453905,11.5066103 L9.25453905,13.5230037 Z M10.9794297,13.5230037 L9.47060303,13.5230037 L9.47060303,11.5843469 C9.9582558,11.7334744 10.4579792,11.8445267 10.9794297,11.9016393 L10.9794297,13.5230037 Z M12.7043203,13.5230037 L11.1954936,13.5230037 L11.1954936,11.914331 C11.4574259,11.9413009 11.7181512,11.9666843 11.9861188,11.9666843 C12.2287381,11.9666843 12.4665292,11.9397144 12.7043203,11.9238498 C12.7043203,11.9238498 12.7043203,13.5230037 12.7043203,13.5230037 Z M14.4280038,13.5230037 L12.9191772,13.5230037 L12.9191772,11.9063987 C13.4394206,11.8540455 13.9403511,11.7525119 14.4280038,11.6081438 L14.4280038,13.5230037 Z M16.1516874,13.5230037 L14.6440678,13.5230037 L14.6440678,11.5383395 C15.1727606,11.3638287 15.6797264,11.1448969 16.1516874,10.8577472 L16.1516874,13.5230037 Z M17.877785,13.5230037 L16.3665443,13.5230037 L16.3665443,10.7133792 C16.9229995,10.3500793 17.4323794,9.90904283 17.877785,9.37916446 L17.877785,13.5230037 Z M19.1017452,13.5230037 L18.0914349,13.5230037 L18.0914349,9.07932311 C18.4825228,8.56213644 18.8289494,7.98783712 19.1017452,7.32310947 L19.1017452,13.5230037 Z M21.5689785,13.5230037 L20.6588543,13.5230037 L20.6588543,7.29455315 C20.9014736,7.89264939 21.2213449,8.43839238 21.5689785,8.9539926 L21.5689785,13.5230037 Z M23.0005532,13.5230037 L21.7838354,13.5230037 L21.7838354,9.25859334 C22.1519891,9.75356954 22.5503194,10.2168165 23.0005532,10.6102591 L23.0005532,13.5230037 Z" id="Shape" fill="#0064AF" fill-rule="nonzero"></path>
            </g>
        </g>
    </g>
</svg>