<?xml version="1.0" encoding="UTF-8"?>
<svg width="24px" height="24px" viewBox="0 0 24 24" version="1.1" xmlns="http://www.w3.org/2000/svg" xmlns:xlink="http://www.w3.org/1999/xlink">
    <title>2471990F-79E4-4B43-8CFA-C95FD4A33C03</title>
    <g id="UI-Style-Guide" stroke="none" stroke-width="1" fill="none" fill-rule="evenodd">
        <g id="Style-Guideline" transform="translate(-643.000000, -4800.000000)">
            <g id="static/icon/24x24/camera" transform="translate(643.000000, 4800.000000)">
                <polygon id="hit-area" points="0 0 24 0 24 24 0 24"></polygon>
                <path d="M19.3333333,7 C19.702,7 20,7.28294737 20,7.63157895 L20,7.63157895 L20,18.3684211 C20,18.7170526 19.702,19 19.3333333,19 L19.3333333,19 L4.66666667,19 C4.298,19 4,18.7170526 4,18.3684211 L4,18.3684211 L4,7.63157895 C4,7.28294737 4.298,7 4.66666667,7 L4.66666667,7 Z M14,10.1578947 C12.162,10.1578947 10.6666667,11.5745263 10.6666667,13.3157895 C10.6666667,15.0570526 12.162,16.4736842 14,16.4736842 C15.838,16.4736842 17.3333333,15.0570526 17.3333333,13.3157895 C17.3333333,11.5745263 15.838,10.1578947 14,10.1578947 Z M9.33333333,9.52631579 L6.66666667,9.52631579 L6.66666667,10.7894737 L9.33333333,10.7894737 L9.33333333,9.52631579 Z M10,5 L10,6 L6,6 L6,5 L10,5 Z" id="Combined-Shape" fill="#0064AF"></path>
            </g>
        </g>
    </g>
</svg>