<?xml version="1.0" encoding="UTF-8"?>
<svg width="20px" height="24px" viewBox="0 0 20 24" version="1.1" xmlns="http://www.w3.org/2000/svg" xmlns:xlink="http://www.w3.org/1999/xlink">
    <title>AD76702D-F27B-4125-B8C8-641152F01D69</title>
    <defs>
        <path d="M12.5,0 C13.4166667,0 14.6716667,0.519808333 15.4011481,1.18174389 L15.5491071,1.325625 L18.7366071,4.674375 C19.3866071,5.356 19.9238294,6.655025 19.9925701,7.66364333 L20,7.875 L20,22.125 C20,23.1046875 19.2747768,23.9151562 18.3601897,23.9937539 L18.2142857,24 L1.78571429,24 C0.852678571,24 0.0808035714,23.2385156 0.00594866071,22.2781992 L0,22.125 L0,1.875 C0,0.8953125 0.725223214,0.08484375 1.63981027,0.00624609375 L1.78571429,0 L12.5,0 Z M12.5,1.5 L1.78571429,1.5 C1.61618304,1.5 1.46989397,1.63135254 1.43597063,1.80047791 L1.42857143,1.875 L1.42857143,22.125 C1.42857143,22.3013672 1.55366908,22.4562012 1.71474086,22.4921539 L1.78571429,22.5 L18.2142857,22.5 C18.3822545,22.5 18.5297154,22.3672119 18.5639561,22.1989838 L18.5714286,22.125 L18.5714286,7.87734375 C18.5714286,7.80234375 18.5654762,7.72109375 18.5535714,7.63498264 L18.53125,7.50234375 L12.8571429,7.50234375 L12.8571429,1.53984375 C12.7276786,1.5140625 12.6071429,1.5 12.5,1.5 Z M9.09821429,4.17 L9.33482143,4.17796875 C9.70044643,4.16151562 9.94674107,4.43324531 10.0867232,4.71875766 L10.1294643,4.8140625 L10.1696429,4.93125 C10.2053571,5.034375 10.2142857,5.071875 10.2321429,5.2078125 C10.3616071,6.1828125 9.87946429,9.065625 9.87946429,9.065625 C9.85714286,9.1734375 9.83035714,9.2765625 9.80357143,9.3984375 C10.25,10.6828125 10.9642857,11.85 11.8214286,12.69375 C12.1428571,13.0078125 12.5491071,13.265625 12.9419643,13.5046875 C13.8258929,13.378125 14.6607143,13.3125 15.3571429,13.321875 C16.3839286,13.3359375 17.0625,13.5 17.3660714,13.8140625 C17.4732143,13.9265625 17.5758929,14.090625 17.5892857,14.221875 C17.6473214,14.6671875 17.6026786,15.0984375 17.40625,15.4125 C17.3035714,15.5765625 17.1383929,15.69375 16.9419643,15.7453125 C16.8125,15.7828125 16.65625,15.8015625 16.4732143,15.8015625 C15.4464286,15.8015625 13.8214286,15.2578125 12.5,14.475 C10.7633929,14.746875 8.78125,15.24375 7.04017857,15.8390625 C5.53571429,18.6 4.44196429,19.828125 3.5,19.828125 C3.36941964,19.828125 3.23883929,19.8043945 3.11334403,19.7569336 L2.98973214,19.7015625 L2.61473214,19.5046875 C2.37946429,19.359375 2.34464286,19.0546875 2.39107143,18.8203125 C2.53660714,18.0703125 3.41517857,17.128125 4.73660714,16.2984375 C4.8786526,16.2089489 5.44130018,15.8986441 5.56255031,15.8288775 L5.58482143,15.815625 L5.97321429,15.6 C6.29464286,15.0214286 6.64559038,14.3533163 7.02605685,13.5838557 L7.21875,13.190625 L7.27678571,13.0734375 C7.63764881,12.33125 8.03881448,11.5044271 8.38986028,10.6689236 L8.59375,10.1671875 L8.73660714,9.80625 C8.1875,7.6078125 7.88392857,5.9109375 8.17857143,4.771875 C8.2637987,4.44502841 8.5777745,4.21503099 8.97291913,4.17591449 L9.09375,4.17 L9.09821429,4.17 Z M5.51339286,16.396875 C5.37053571,16.5375 5.21428571,16.6921875 5.15178571,16.74375 C4.14732143,17.6109375 3.46875,18.5859375 3.29464286,19.078125 C3.75892857,18.8578125 4.46428571,18.159375 5.51339286,16.396875 Z M15.3616071,14.2078125 C15.0580357,14.2078125 14.7232143,14.221875 14.3526786,14.25 C15.3125,14.68125 15.9910714,14.9484375 16.5446429,14.9484375 C16.7142857,14.9484375 16.9821429,14.9109375 17.0758929,14.85 C17.1651786,14.7890625 17.1607143,14.49375 16.6205357,14.353125 C16.0758929,14.2078125 15.9151786,14.2078125 15.3616071,14.2078125 Z M9.27678571,11.0484375 C9.02232143,11.746875 8.67410714,12.6 8.12946429,13.6828125 C7.90625,14.128125 7.6875,14.5453125 7.47321429,14.9390625 C8.63392857,14.475 9.95089286,14.090625 11.4732143,13.771875 C11.3660714,13.6875 11.2678571,13.6078125 11.1741071,13.5234375 C10.4285714,12.8578125 9.79017857,12.028125 9.27678571,11.0484375 Z M9.25,4.678125 C9.14354396,4.678125 9.12690194,5.35101701 9.12489027,5.66158256 L9.12483744,5.79616096 L9.125,5.8153125 C9.125,6.410625 9.20535714,7.32 9.37946429,7.90125 C9.58928571,7.5075 9.75446429,6.9825 9.74107143,6.2325 C9.72767857,5.4778125 9.55357143,4.678125 9.25,4.678125 Z M14.2857143,2.16890625 L14.2857143,6 L17.9330357,6 C17.8660714,5.896875 17.7991071,5.8078125 17.7276786,5.7328125 L17.7276786,5.7328125 L14.5401786,2.38640625 C14.46875,2.31328125 14.3839286,2.24015625 14.2857143,2.16890625 L14.2857143,2.16890625 Z" id="path-1"></path>
    </defs>
    <g id="UI-Style-Guide" stroke="none" stroke-width="1" fill="none" fill-rule="evenodd">
        <g id="Style-Guideline" transform="translate(-389.000000, -5012.000000)">
            <g id="static/icon/24x24/document-pdf" transform="translate(389.000000, 5012.000000)">
                <mask id="mask-2" fill="white">
                    <use xlink:href="#path-1"></use>
                </mask>
                <use id="Mask" fill="#0064AF" xlink:href="#path-1"></use>
            </g>
        </g>
    </g>
</svg>