<?xml version="1.0" encoding="UTF-8"?>
<svg width="24px" height="24px" viewBox="0 0 24 24" version="1.1" xmlns="http://www.w3.org/2000/svg" xmlns:xlink="http://www.w3.org/1999/xlink">
    <g id="UI-Style-Guide" stroke="none" stroke-width="1" fill="none" fill-rule="evenodd">
        <g id="Style-Guideline" transform="translate(-643.000000, -4844.000000)">
            <g id="static/icon/24x24/eye" transform="translate(643.000000, 4844.000000)">
                <polygon id="hit-area" points="0 0 24 0 24 24 0 24"></polygon>
                <g id="Group-13" transform="translate(0.000000, 1.000000)">
                    <path d="M4.79554894,0.393798268 L7.74169468,4.25054875 C8.93278168,3.79955107 10.2714151,3.52049827 11.7712489,3.52049827 C19.7342489,3.52049827 23.3062489,11.2644983 23.4542489,11.5944983 C23.6802489,12.0974983 23.4562489,12.6874983 22.9532489,12.9144983 C22.8202489,12.9744983 22.6802489,13.0034983 22.5432489,13.0034983 C22.1622489,13.0034983 21.7982489,12.7844983 21.6302489,12.4154983 C21.5992489,12.3464983 18.4262489,5.52049827 11.7712489,5.52049827 C10.7782882,5.52049827 9.86416855,5.67344337 9.02633129,5.93307807 L10.2758685,7.5705683 C10.7446333,7.40967535 11.2466918,7.32129827 11.7713489,7.32129827 C12.5003489,7.32129827 13.1913489,7.48529827 13.8083489,7.78029827 C12.8963489,7.93729827 12.2023489,8.73329827 12.2023489,9.69029827 C12.2023489,9.85704295 12.2233889,10.018867 12.2629554,10.1732608 L13.1819527,11.3759297 C13.4646291,11.5371781 13.79177,11.6292983 14.1403489,11.6292983 C15.0983489,11.6292983 15.8933489,10.9352983 16.0513489,10.0222983 C16.3453489,10.6402983 16.5103489,11.3312983 16.5103489,12.0602983 C16.5103489,13.0331713 16.2164355,13.9368672 15.7131569,14.6887689 L19.4635489,19.5997983 C19.7985489,20.0387983 19.7135489,20.6667983 19.2745489,21.0007983 C19.0935489,21.1387983 18.8805489,21.2057983 18.6695489,21.2057983 C18.3675489,21.2057983 18.0695489,21.0697983 17.8735489,20.8117983 L3.20454894,1.60579827 C2.86954894,1.16579827 2.95454894,0.538798268 3.39454894,0.204798268 C3.83554894,-0.130201732 4.46054894,-0.0452017322 4.79554894,0.393798268 Z M7.46284894,10.1082983 L12.5048489,16.7252983 C12.2638489,16.7632983 12.0228489,16.7992983 11.7708489,16.7992983 C9.15384894,16.7992983 7.03184894,14.6772983 7.03184894,12.0602983 C7.03184894,11.3622983 7.19184894,10.7052983 7.46284894,10.1082983 L7.46284894,10.1082983 Z M4.43604894,6.13549827 L5.66304894,7.74549827 C3.15704894,9.74449827 1.93104894,12.3724983 1.91204894,12.4154983 C1.68504894,12.9184983 1.09404894,13.1414983 0.589048944,12.9144983 C0.0860489436,12.6874983 -0.137951056,12.0974983 0.0880489436,11.5944983 C0.178048944,11.3924983 1.55904894,8.41649827 4.43604894,6.13549827 L4.43604894,6.13549827 Z" id="Combined-Shape" fill="#0064AF"></path>
                    <g id="Group-5" transform="translate(6.101249, 3.520498)"></g>
                    <g id="Group-12" transform="translate(2.999821, 0.000000)"></g>
                </g>
            </g>
        </g>
    </g>
</svg>