<?xml version="1.0" encoding="UTF-8"?>
<svg width="24px" height="24px" viewBox="0 0 24 24" version="1.1" xmlns="http://www.w3.org/2000/svg" xmlns:xlink="http://www.w3.org/1999/xlink">
    <title>86796304-D778-4502-94CB-5A1C6C000FC5</title>
    <g id="UI-Style-Guide" stroke="none" stroke-width="1" fill="none" fill-rule="evenodd">
        <g id="Style-Guideline" transform="translate(-643.000000, -4976.000000)">
            <g id="static/icon/24x24/help" transform="translate(643.000000, 4976.000000)">
                <polygon id="hit-area" points="0 0 24 0 24 24 0 24"></polygon>
                <path d="M13.5,12.3999 C13,12.6999 13,12.7999 13,12.9999 L13,13.9999 L11,13.9999 L11,12.9999 C11,11.6999 11.8,11.0999 12.4,10.6999 C12.9,10.3999 13,10.2999 13,9.9999 C13,9.3999 12.6,8.9999 12,8.9999 C11.6,8.9999 11.3,9.1999 11.1,9.4999 L10.6,10.3999 L8.9,9.3999 L9.4,8.4999 C9.9,7.5999 10.9,6.9999 12,6.9999 C13.7,6.9999 15,8.2999 15,9.9999 C15,11.3999 14.1,11.9999 13.5,12.3999 M12,16.9999 C11.4,16.9999 11,16.5999 11,15.9999 C11,15.3999 11.4,14.9999 12,14.9999 C12.6,14.9999 13,15.3999 13,15.9999 C13,16.5999 12.6,16.9999 12,16.9999 M12,3.9999 C7.6,3.9999 4,7.5999 4,11.9999 C4,16.3999 7.6,19.9999 12,19.9999 C16.4,19.9999 20,16.3999 20,11.9999 C20,7.5999 16.4,3.9999 12,3.9999" id="Fill-1" fill="#0064AF"></path>
            </g>
        </g>
    </g>
</svg>