<?xml version="1.0" encoding="UTF-8"?>
<svg width="24px" height="24px" viewBox="0 0 24 24" version="1.1" xmlns="http://www.w3.org/2000/svg" xmlns:xlink="http://www.w3.org/1999/xlink">
    <defs>
        <polygon id="path-1" points="0 0 16.009 0 16.009 15.925 0 15.925"></polygon>
    </defs>
    <g id="UI-Style-Guide" stroke="none" stroke-width="1" fill="none" fill-rule="evenodd">
        <g id="Style-Guideline" transform="translate(-135.000000, -4880.000000)">
            <g id="static/icon/24x24/home" transform="translate(135.000000, 4880.000000)">
                <polygon id="hit-area" points="0 0 24 0 24 24 0 24"></polygon>
                <g id="Group-3" transform="translate(4.000000, 4.000000)">
                    <mask id="mask-2" fill="white">
                        <use xlink:href="#path-1"></use>
                    </mask>
                    <g id="Clip-2"></g>
                    <path d="M10.9546,15.925 L12.9546,15.925 C13.5546,15.925 13.9546,15.525 13.9546,14.925 L13.9546,7.925 L14.9546,7.925 C15.2546,7.925 15.5546,7.825 15.7546,7.625 C16.1546,7.225 16.0546,6.625 15.6546,6.225 L8.6546,0.225 C8.2546,-0.075 7.7546,-0.075 7.3546,0.225 L0.3546,6.225 C-0.0454,6.625 -0.1454,7.225 0.2546,7.625 C0.3546,7.825 0.6546,7.925 0.9546,7.925 L1.9546,7.925 L1.9546,14.925 C1.9546,15.525 2.3546,15.925 2.9546,15.925 L4.9546,15.925 C5.5546,15.925 5.9546,15.525 5.9546,14.925 L5.9546,11.925 L9.9546,11.925 L9.9546,14.925 C9.9546,15.525 10.3546,15.925 10.9546,15.925" id="Fill-1" fill="#0064AF" mask="url(#mask-2)"></path>
                </g>
            </g>
        </g>
    </g>
</svg>