<?xml version="1.0" encoding="UTF-8"?>
<svg width="24px" height="24px" viewBox="0 0 24 24" version="1.1" xmlns="http://www.w3.org/2000/svg" xmlns:xlink="http://www.w3.org/1999/xlink">
    <defs>
        <path d="M12,19 C12.5098013,19 12.930502,19.2724894 12.9922086,19.6246872 L13,19.7142857 L13,23.2857143 C13,23.6802034 12.5522847,24 12,24 C11.4901987,24 11.069498,23.7275106 11.0077914,23.3753128 L11,23.2857143 L11,19.7142857 C11,19.3197966 11.4477153,19 12,19 Z M5.61917628,16.0989862 C5.96857519,16.2781668 6.09469074,16.6450235 5.92552926,16.9475759 L5.88121763,17.0161396 L1.4813974,23.6826439 C1.24984309,23.99621 0.757099475,24.0939775 0.380823725,23.9010138 C0.0314248139,23.7218332 -0.0946907445,23.3549765 0.0744707353,23.0524241 L0.118782373,22.9838604 L4.5186026,16.3173561 C4.75015691,16.00379 5.24290052,15.9060225 5.61917628,16.0989862 Z M19.6172204,16.2843941 L19.6716302,16.3507203 L23.8935843,23.0171629 C24.1263193,23.341335 23.964603,23.7456326 23.532381,23.9201869 C23.1310319,24.0822729 22.6375674,23.9892694 22.3827796,23.7156059 L22.3283698,23.6492797 L18.1064157,16.9828371 C17.8736807,16.658665 18.035397,16.2543674 18.467619,16.0798131 C18.8689681,15.9177271 19.3624326,16.0107306 19.6172204,16.2843941 Z M12,15 C12.5098013,15 12.930502,15.2861139 12.9922086,15.6559216 L13,15.75 L13,17.25 C13,17.6642136 12.5522847,18 12,18 C11.4901987,18 11.069498,17.7138861 11.0077914,17.3440784 L11,17.25 L11,15.75 C11,15.3357864 11.4477153,15 12,15 Z M18.4,0 C18.8416,0 19.2,0.3584 19.2,0.8 L19.2,0.8 L19.2,6.2112 L19.916,7.6424 C19.9712,7.7528 20,7.876 20,8 L20,8 L20,12.8 C20,13.2416 19.6416,13.6 19.2,13.6 L19.2,13.6 L18.4,13.6 L18.4,15.2 C18.4,15.6416 18.0416,16 17.6,16 L17.6,16 L15.2,16 C14.7584,16 14.4,15.6416 14.4,15.2 L14.4,15.2 L14.4,13.6 L9.6,13.6 L9.6,15.2 C9.6,15.6416 9.2416,16 8.8,16 L8.8,16 L6.4,16 C5.9584,16 5.6,15.6416 5.6,15.2 L5.6,15.2 L5.6,13.6 L4.8,13.6 C4.3584,13.6 4,13.2416 4,12.8 L4,12.8 L4,8 C4,7.876 4.0288,7.7528 4.084,7.6424 L4.084,7.6424 L4.8,6.2112 L4.8,0.8 C4.8,0.3584 5.1584,0 5.6,0 L5.6,0 Z M16.8,9.6 L15.2,9.6 C14.7584,9.6 14.4,9.9584 14.4,10.4 C14.4,10.8416 14.7584,11.2 15.2,11.2 L15.2,11.2 L16.8,11.2 C17.2416,11.2 17.6,10.8416 17.6,10.4 C17.6,9.9584 17.2416,9.6 16.8,9.6 L16.8,9.6 Z M8.8,9.6 L7.2,9.6 C6.7584,9.6 6.4,9.9584 6.4,10.4 C6.4,10.8416 6.7584,11.2 7.2,11.2 L7.2,11.2 L8.8,11.2 C9.2416,11.2 9.6,10.8416 9.6,10.4 C9.6,9.9584 9.2416,9.6 8.8,9.6 L8.8,9.6 Z M16,2.4 L8,2.4 C7.5584,2.4 7.2,2.7584 7.2,3.2 L7.2,3.2 L7.2,5.6 C7.2,6.0416 7.5584,6.4 8,6.4 L8,6.4 L16,6.4 C16.4416,6.4 16.8,6.0416 16.8,5.6 L16.8,5.6 L16.8,3.2 C16.8,2.7584 16.4416,2.4 16,2.4 L16,2.4 Z M3,3 C3.552,3 4,3.336 4,3.75 L4,3.75 L4,5.25 C4,5.664 3.552,6 3,6 C2.448,6 2,5.664 2,5.25 L2,5.25 L2,3.75 C2,3.336 2.448,3 3,3 Z M21,3 C21.552,3 22,3.336 22,3.75 L22,3.75 L22,5.25 C22,5.664 21.552,6 21,6 C20.448,6 20,5.664 20,5.25 L20,5.25 L20,3.75 C20,3.336 20.448,3 21,3 Z" id="path-1"></path>
    </defs>
    <g id="UI-Style-Guide" stroke="none" stroke-width="1" fill="none" fill-rule="evenodd">
        <g id="Style-Guideline" transform="translate(-387.000000, -4836.000000)">
            <g id="static/icon/24x24/lane" transform="translate(387.000000, 4836.000000)">
                <polygon id="hit-area" points="0 0 24 0 24 24 0 24"></polygon>
                <mask id="mask-2" fill="white">
                    <use xlink:href="#path-1"></use>
                </mask>
                <use id="Mask" fill="#FFFFFF" xlink:href="#path-1"></use>
            </g>
        </g>
    </g>
</svg>