<?xml version="1.0" encoding="UTF-8"?>
<svg width="24px" height="24px" viewBox="0 0 24 24" version="1.1" xmlns="http://www.w3.org/2000/svg" xmlns:xlink="http://www.w3.org/1999/xlink">
    <title>B65C7604-2EE3-4229-9C5A-DCF79D15BAAC</title>
    <g id="UI-Style-Guide" stroke="none" stroke-width="1" fill="none" fill-rule="evenodd">
        <g id="Style-Guideline" transform="translate(-643.000000, -4932.000000)">
            <g id="static/icon/24x24/logout" transform="translate(643.000000, 4932.000000)">
                <polygon id="hit-area" points="0 0 24 0 24 24 0 24"></polygon>
                <path d="M18,4 C18.6,4 19,4.4 19,5 L19,19 C19,19.6 18.6,20 18,20 L9,20 C8.4,20 8,19.6 8,19 L8,16 L10,16 L10,18 L17,18 L17,6 L10,6 L10,8 L8,8 L8,5 C8,4.4 8.4,4 9,4 L18,4 Z M7,7.9999 L7,10.9999 L13,10.9999 L13,12.9999 L7,12.9999 L7,16.0009 L3,11.9999 L7,7.9999 Z" id="Combined-Shape" fill="#0064AF"></path>
            </g>
        </g>
    </g>
</svg>