<?xml version="1.0" encoding="UTF-8"?>
<svg width="20px" height="18px" viewBox="0 0 20 18" version="1.1" xmlns="http://www.w3.org/2000/svg" xmlns:xlink="http://www.w3.org/1999/xlink">
    <defs>
        <path d="M4.375,2.5 C1.95625,2.5 0,4.45625 0,6.875 C0,10.15625 4.375,15 4.375,15 C4.375,15 8.75,10.15625 8.75,6.875 C8.75,4.45625 6.79375,2.5 4.375,2.5 Z M4.375,8.4375 C3.5125,8.4375 2.8125,7.7375 2.8125,6.875 C2.8125,6.0125 3.5125,5.3125 4.375,5.3125 C5.2375,5.3125 5.9375,6.0125 5.9375,6.875 C5.9375,7.7375 5.2375,8.4375 4.375,8.4375 Z M10.9537149,15.4972546 L11.1874161,16.469563 C10.750019,16.5746945 10.2178047,16.6335997 9.57831554,16.6473989 L9.57831554,16.6473989 L9.04719225,16.653237 L9.04647081,15.6532373 L9.55794146,15.6476072 C10.1296553,15.6352692 10.5927569,15.5840134 10.9537149,15.4972546 L10.9537149,15.4972546 Z M5.14709433,15.2321582 C5.18127107,15.236701 5.21816707,15.2417124 5.2573456,15.2471218 L5.2573456,15.2471218 L7.12037326,15.5256431 L6.98006283,16.5157506 L5.01533104,16.2234394 Z M12.2572014,12.5386192 L12.4450181,12.9763192 C12.7552532,13.7213067 12.8817158,14.1699168 12.8863352,14.6466271 L12.8863352,14.6466271 L11.8863821,14.6563167 C11.8844165,14.4534709 11.8398569,14.2295819 11.7381606,13.9272251 L11.7381606,13.9272251 L11.6366605,13.6475061 L11.5051399,13.3213177 L11.3415638,12.940624 L12.2572014,12.5386192 Z M11.0192106,8.55582792 L11.784522,9.19948813 C11.4641154,9.58045123 11.4023341,10.0618969 11.565838,10.733519 L11.565838,10.733519 L10.5942158,10.9700569 C10.3620846,10.0165361 10.4649637,9.21482704 11.0192106,8.55582792 L11.0192106,8.55582792 Z M15.0469574,7.03101487 L15.1557158,8.02508309 C14.4133719,8.10630095 13.789563,8.22385889 13.2776531,8.37530226 L13.2776531,8.37530226 L12.9939671,7.41638502 C13.5673433,7.24675748 14.2487565,7.1183439 15.0469574,7.03101487 L15.0469574,7.03101487 Z M16.375,0 C17.82625,0 19,1.17375 19,2.625 C19,4.59375 16.375,7.5 16.375,7.5 C16.375,7.5 13.75,4.59375 13.75,2.625 C13.75,1.17375 14.92375,0 16.375,0 Z M16.375,1.6875 C15.8575,1.6875 15.4375,2.1075 15.4375,2.625 C15.4375,3.1425 15.8575,3.5625 16.375,3.5625 C16.8925,3.5625 17.3125,3.1425 17.3125,2.625 C17.3125,2.1075 16.8925,1.6875 16.375,1.6875 Z" id="path-1"></path>
    </defs>
    <g id="UI-Style-Guide" stroke="none" stroke-width="1" fill="none" fill-rule="evenodd">
        <g id="Style-Guideline" transform="translate(-389.000000, -5103.000000)">
            <g id="static/icon/24x24/map-route" transform="translate(389.125000, 5103.750000)">
                <mask id="mask-2" fill="white">
                    <use xlink:href="#path-1"></use>
                </mask>
                <use id="Mask" fill="#0064AF" xlink:href="#path-1"></use>
            </g>
        </g>
    </g>
</svg>