<?xml version="1.0" encoding="UTF-8"?>
<svg width="32px" height="32px" viewBox="0 0 32 32" version="1.1" xmlns="http://www.w3.org/2000/svg" xmlns:xlink="http://www.w3.org/1999/xlink">
    <g id="UI-Style-Guide" stroke="none" stroke-width="1" fill="none" fill-rule="evenodd">
        <g id="Style-Guideline" transform="translate(-317.000000, -5673.000000)">
            <g id="static/icon/32x32/password" transform="translate(317.000000, 5673.000000)">
                <polygon id="hit-area" points="0 0 32 0 32 32 0 32"></polygon>
                <g id="password_black_24dp" transform="translate(4.000000, 4.000000)">
                    <polygon id="Path" points="0 0 24 0 24 24 0 24"></polygon>
                    <path d="M2,17 L22,17 L22,19 L2,19 L2,17 Z M3.15,12.95 L4,11.47 L4.85,12.95 L6.15,12.2 L5.3,10.72 L7,10.72 L7,9.22 L5.3,9.22 L6.15,7.75 L4.85,7 L4,8.47 L3.15,7 L1.85,7.75 L2.7,9.22 L1,9.22 L1,10.72 L2.7,10.72 L1.85,12.2 L3.15,12.95 Z M9.85,12.2 L11.15,12.95 L12,11.47 L12.85,12.95 L14.15,12.2 L13.3,10.72 L15,10.72 L15,9.22 L13.3,9.22 L14.15,7.75 L12.85,7 L12,8.47 L11.15,7 L9.85,7.75 L10.7,9.22 L9,9.22 L9,10.72 L10.7,10.72 L9.85,12.2 Z M23,9.22 L21.3,9.22 L22.15,7.75 L20.85,7 L20,8.47 L19.15,7 L17.85,7.75 L18.7,9.22 L17,9.22 L17,10.72 L18.7,10.72 L17.85,12.2 L19.15,12.95 L20,11.47 L20.85,12.95 L22.15,12.2 L21.3,10.72 L23,10.72 L23,9.22 Z" id="Shape" fill="#0064AF" fill-rule="nonzero"></path>
                </g>
            </g>
        </g>
    </g>
</svg>