<?xml version="1.0" encoding="UTF-8"?>
<svg width="24px" height="24px" viewBox="0 0 24 24" version="1.1" xmlns="http://www.w3.org/2000/svg" xmlns:xlink="http://www.w3.org/1999/xlink">
    <g id="UI-Style-Guide" stroke="none" stroke-width="1" fill="none" fill-rule="evenodd">
        <g id="Style-Guideline" transform="translate(-387.000000, -5056.000000)">
            <g id="static/icon/24x24/settings" transform="translate(387.000000, 5056.000000)">
                <polygon id="hit-area" points="0 0 24 0 24 24 0 24"></polygon>
                <path d="M12,15 C10.3,15 9,13.7 9,12 C9,10.3 10.3,9 12,9 C13.7,9 15,10.3 15,12 C15,13.7 13.7,15 12,15 M17.3,9.2 L18.4,7.1 L17,5.7 L14.9,6.8 C14.6,6.6 14.2,6.5 13.8,6.4 L13,4 L11,4 L10.2,6.3 C9.9,6.4 9.5,6.5 9.2,6.7 L7.1,5.6 L5.6,7.1 L6.7,9.2 C6.5,9.5 6.4,9.9 6.3,10.2 L4,11 L4,13 L6.3,13.8 C6.4,14.2 6.6,14.5 6.7,14.9 L5.6,17 L7,18.4 L9.1,17.3 C9.4,17.5 9.8,17.6 10.2,17.7 L11,20 L13,20 L13.8,17.7 C14.2,17.6 14.5,17.4 14.9,17.3 L17,18.4 L18.4,17 L17.3,14.9 C17.5,14.6 17.6,14.2 17.7,13.8 L20,13 L20,11 L17.7,10.2 C17.6,9.9 17.5,9.5 17.3,9.2" id="Fill-1" fill="#0064AF"></path>
            </g>
        </g>
    </g>
</svg>