<?xml version="1.0" encoding="UTF-8"?>
<svg width="24px" height="24px" viewBox="0 0 24 24" version="1.1" xmlns="http://www.w3.org/2000/svg" xmlns:xlink="http://www.w3.org/1999/xlink">
    <g id="UI-Style-Guide" stroke="none" stroke-width="1" fill="none" fill-rule="evenodd">
        <g id="Style-Guideline" transform="translate(-387.000000, -4748.000000)">
            <g id="static/icon/24x24/theme" transform="translate(387.000000, 4748.000000)">
                <polygon id="hit-area" points="0 0 24 0 24 24 0 24"></polygon>
                <path d="M16,13.513 C14.9,13.513 14,12.613 14,11.513 C14,10.413 14.9,9.513 16,9.513 C17.1,9.513 18,10.413 18,11.513 C18,12.613 17.1,13.513 16,13.513 M13,17.513 C12.4,17.513 12,17.113 12,16.513 C12,15.913 12.4,15.513 13,15.513 C13.6,15.513 14,15.913 14,16.513 C14,17.113 13.6,17.513 13,17.513 M9,15.513 C8.4,15.513 8,15.113 8,14.513 C8,13.913 8.4,13.513 9,13.513 C9.6,13.513 10,13.913 10,14.513 C10,15.113 9.6,15.513 9,15.513 M7,11.513 C6.4,11.513 6,11.113 6,10.513 C6,9.913 6.4,9.513 7,9.513 C7.6,9.513 8,9.913 8,10.513 C8,11.113 7.6,11.513 7,11.513 M17.9,7.313 C14.3,5.613 11.3,9.113 9.9,7.313 C9.4,6.613 10.6,5.313 9.9,4.413 C9.4,3.813 8.2,3.913 7.5,4.413 C5.4,5.913 4,8.313 4,11.013 C4,15.413 7.6,19.013 12,19.013 C15.7,19.013 18.8,16.513 19.7,13.113 C20.1,12.013 20.5,8.613 17.9,7.313" id="Fill-1" fill="#0064AF"></path>
            </g>
        </g>
    </g>
</svg>