<?xml version="1.0" encoding="UTF-8"?>
<svg width="24px" height="24px" viewBox="0 0 24 24" version="1.1" xmlns="http://www.w3.org/2000/svg" xmlns:xlink="http://www.w3.org/1999/xlink">
    <defs>
        <path d="M20,4 C20.552,4 21,4.448 21,5 L21,5 L21,11.764 L21.895,13.553 C21.964,13.691 22,13.845 22,14 L22,14 L22,20 C22,20.552 21.552,21 21,21 L21,21 L20,21 L20,23 C20,23.552 19.552,24 19,24 L19,24 L16,24 C15.448,24 15,23.552 15,23 L15,23 L15,21 L9,21 L9,23 C9,23.552 8.552,24 8,24 L8,24 L5,24 C4.448,24 4,23.552 4,23 L4,23 L4,21 L3,21 C2.448,21 2,20.552 2,20 L2,20 L2,14 C2,13.845 2.036,13.691 2.105,13.553 L2.105,13.553 L3,11.764 L3,5 C3,4.448 3.448,4 4,4 L4,4 Z M18,16 L16,16 C15.448,16 15,16.448 15,17 C15,17.552 15.448,18 16,18 L16,18 L18,18 C18.552,18 19,17.552 19,17 C19,16.448 18.552,16 18,16 L18,16 Z M8,16 L6,16 C5.448,16 5,16.448 5,17 C5,17.552 5.448,18 6,18 L6,18 L8,18 C8.552,18 9,17.552 9,17 C9,16.448 8.552,16 8,16 L8,16 Z M1,8 C1.552,8 2,8.448 2,9 L2,9 L2,11 C2,11.552 1.552,12 1,12 C0.448,12 0,11.552 0,11 L0,11 L0,9 C0,8.448 0.448,8 1,8 Z M23,8 C23.552,8 24,8.448 24,9 L24,9 L24,11 C24,11.552 23.552,12 23,12 C22.448,12 22,11.552 22,11 L22,11 L22,9 C22,8.448 22.448,8 23,8 Z M17,7 L7,7 C6.448,7 6,7.448 6,8 L6,8 L6,11 C6,11.552 6.448,12 7,12 L7,12 L17,12 C17.552,12 18,11.552 18,11 L18,11 L18,8 C18,7.448 17.552,7 17,7 L17,7 Z M20,0 C20.552,0 21,0.448 21,1 C21,1.552 20.552,2 20,2 L20,2 L4,2 C3.448,2 3,1.552 3,1 C3,0.448 3.448,0 4,0 L4,0 Z" id="path-1"></path>
    </defs>
    <g id="UI-Style-Guide" stroke="none" stroke-width="1" fill="none" fill-rule="evenodd">
        <g id="Style-Guideline" transform="translate(-135.000000, -4968.000000)">
            <g id="static/icon/24x24/truck" transform="translate(135.000000, 4968.000000)">
                <polygon id="hit-area" points="0 0 24 0 24 24 0 24"></polygon>
                <mask id="mask-2" fill="white">
                    <use xlink:href="#path-1"></use>
                </mask>
                <use id="Mask" fill="#0064AF" xlink:href="#path-1"></use>
            </g>
        </g>
    </g>
</svg>