<?xml version="1.0" encoding="UTF-8"?>
<svg width="24px" height="24px" viewBox="0 0 24 24" version="1.1" xmlns="http://www.w3.org/2000/svg" xmlns:xlink="http://www.w3.org/1999/xlink">
    <defs>
        <polygon id="path-1" points="0 0 16.009 0 16.009 15.925 0 15.925"></polygon>
    </defs>
    <g id="UI-Style-Guide" stroke="none" stroke-width="1" fill="none" fill-rule="evenodd">
        <g id="Style-Guideline" transform="translate(-399.000000, -5644.000000)">
            <g id="static/icon/24x24/user" transform="translate(399.000000, 5644.000000)">
                <polygon id="hit-area" points="0 0 24 0 24 24 0 24"></polygon>
                <g id="Group-3" transform="translate(4.000000, 4.000000)">
                    <mask id="mask-2" fill="white">
                        <use xlink:href="#path-1"></use>
                    </mask>
                    <g id="Clip-2"></g>
                    <path d="M8,8 C10.21,8 12,6.21 12,4 C12,1.79 10.21,0 8,0 C5.79,0 4,1.79 4,4 C4,6.21 5.79,8 8,8 Z M8,10 C5.33,10 0,11.34 0,14 L0,16 L16,16 L16,14 C16,11.34 10.67,10 8,10 Z" id="Shape" fill="#0064AF" mask="url(#mask-2)"></path>
                </g>
            </g>
        </g>
    </g>
</svg>